# xmcd CD database file
#
# Track frame offsets:
#	182
#	14947
#	36207
#	46767
#	65687
#	78392
#	91687
#	109247
#	122982
#	140862
#	162700
#	177695
#	192932
#
# Disc length: 2862 seconds
#
# Revision: 3
# Processed by: cddbd v1.5.2PL0 Copyright (c) Steve Scherf et al.
# Submitted via: CDex 1.70beta2
#
DISCID=c40b2c0d
DTITLE=Gdzie CiKwiaty - Gdzie CiKwiaty
DYEAR=1995
DGENRE=Rock
TTITLE0=Lewituje
TTITLE1=Pragne wlasnie jej
TTITLE2=Jestem elektryczny
TTITLE3=The enemy inside
TTITLE4=Sluchaj - moze tego nie wiesz
TTITLE5=Przetrwac dzien do nocy
TTITLE6=New fashion
TTITLE7=Ule bule
TTITLE8=(Blazen) Wyciskacz lez
TTITLE9=Ciala astralne
TTITLE10=Obojetnosc
TTITLE11=Moglbym zabic
TTITLE12=Can you do anything
EXTD=YEAR: 1995
EXTT0=
EXTT1=
EXTT2=
EXTT3=
EXTT4=
EXTT5=
EXTT6=
EXTT7=
EXTT8=
EXTT9=
EXTT10=
EXTT11=
EXTT12=
PLAYORDER=
